<mxfile host="app.diagrams.net" agent="Mozilla/5.0 (Macintosh; Intel Mac OS X 10_15_7) AppleWebKit/537.36 (KHTML, like Gecko) Chrome/138.0.0.0 Safari/537.36" version="28.0.4">
  <diagram name="Parallel Search Engine Flow" id="VaoueVXMIG4CAzue_4j_">
    <mxGraphModel dx="2027" dy="1355" grid="0" gridSize="10" guides="1" tooltips="1" connect="1" arrows="1" fold="1" page="1" pageScale="1" pageWidth="1169" pageHeight="827" math="0" shadow="0">
      <root>
        <mxCell id="0" />
        <mxCell id="1" parent="0" />
        <mxCell id="smViVWtoItukLS9vT0T5-1" value="User Input&#xa;(URLs, options)" style="rounded=1;whiteSpace=wrap;html=1;" vertex="1" parent="1">
          <mxGeometry x="229.91" y="100" width="150" height="60" as="geometry" />
        </mxCell>
        <mxCell id="smViVWtoItukLS9vT0T5-2" value="Parallel Crawler&#xa;(OpenMP threads)" style="rounded=1;whiteSpace=wrap;html=1;fillColor=#e1d5e7;" vertex="1" parent="1">
          <mxGeometry x="469.91" y="100" width="160" height="60" as="geometry" />
        </mxCell>
        <mxCell id="smViVWtoItukLS9vT0T5-24" style="edgeStyle=orthogonalEdgeStyle;rounded=0;sketch=1;hachureGap=4;jiggle=2;curveFitting=1;orthogonalLoop=1;jettySize=auto;html=1;entryX=0.5;entryY=0;entryDx=0;entryDy=0;fontFamily=Architects Daughter;fontSource=https%3A%2F%2Ffonts.googleapis.com%2Fcss%3Ffamily%3DArchitects%2BDaughter;" edge="1" parent="1" source="smViVWtoItukLS9vT0T5-3" target="smViVWtoItukLS9vT0T5-23">
          <mxGeometry relative="1" as="geometry">
            <Array as="points">
              <mxPoint x="799.91" y="310" />
              <mxPoint x="976.91" y="310" />
              <mxPoint x="976.91" y="370" />
            </Array>
          </mxGeometry>
        </mxCell>
        <mxCell id="smViVWtoItukLS9vT0T5-26" style="edgeStyle=orthogonalEdgeStyle;rounded=0;sketch=1;hachureGap=4;jiggle=2;curveFitting=1;orthogonalLoop=1;jettySize=auto;html=1;entryX=0.5;entryY=0;entryDx=0;entryDy=0;fontFamily=Architects Daughter;fontSource=https%3A%2F%2Ffonts.googleapis.com%2Fcss%3Ffamily%3DArchitects%2BDaughter;" edge="1" parent="1" source="smViVWtoItukLS9vT0T5-3" target="smViVWtoItukLS9vT0T5-25">
          <mxGeometry relative="1" as="geometry">
            <Array as="points">
              <mxPoint x="799.91" y="310" />
              <mxPoint x="609.91" y="310" />
            </Array>
          </mxGeometry>
        </mxCell>
        <mxCell id="smViVWtoItukLS9vT0T5-3" value="Downloaded Files" style="rounded=1;whiteSpace=wrap;html=1;" vertex="1" parent="1">
          <mxGeometry x="719.91" y="100" width="160" height="60" as="geometry" />
        </mxCell>
        <mxCell id="smViVWtoItukLS9vT0T5-4" value="Parallel Indexing&#xa;(OpenMP threads)" style="rounded=1;whiteSpace=wrap;html=1;fillColor=#dae8fc;" vertex="1" parent="1">
          <mxGeometry x="719.91" y="370" width="160" height="60" as="geometry" />
        </mxCell>
        <mxCell id="smViVWtoItukLS9vT0T5-5" value="Inverted Index" style="rounded=1;whiteSpace=wrap;html=1;" vertex="1" parent="1">
          <mxGeometry x="719.91" y="525" width="160" height="60" as="geometry" />
        </mxCell>
        <mxCell id="smViVWtoItukLS9vT0T5-29" style="edgeStyle=orthogonalEdgeStyle;rounded=0;sketch=1;hachureGap=4;jiggle=2;curveFitting=1;orthogonalLoop=1;jettySize=auto;html=1;entryX=1;entryY=0.5;entryDx=0;entryDy=0;fontFamily=Architects Daughter;fontSource=https%3A%2F%2Ffonts.googleapis.com%2Fcss%3Ffamily%3DArchitects%2BDaughter;" edge="1" parent="1" source="smViVWtoItukLS9vT0T5-6" target="smViVWtoItukLS9vT0T5-27">
          <mxGeometry relative="1" as="geometry" />
        </mxCell>
        <mxCell id="smViVWtoItukLS9vT0T5-30" style="edgeStyle=orthogonalEdgeStyle;rounded=0;sketch=1;hachureGap=4;jiggle=2;curveFitting=1;orthogonalLoop=1;jettySize=auto;html=1;entryX=1;entryY=0.5;entryDx=0;entryDy=0;fontFamily=Architects Daughter;fontSource=https%3A%2F%2Ffonts.googleapis.com%2Fcss%3Ffamily%3DArchitects%2BDaughter;" edge="1" parent="1" source="smViVWtoItukLS9vT0T5-6" target="smViVWtoItukLS9vT0T5-28">
          <mxGeometry relative="1" as="geometry" />
        </mxCell>
        <mxCell id="smViVWtoItukLS9vT0T5-33" style="edgeStyle=orthogonalEdgeStyle;rounded=0;sketch=1;hachureGap=4;jiggle=2;curveFitting=1;orthogonalLoop=1;jettySize=auto;html=1;entryX=0;entryY=0.5;entryDx=0;entryDy=0;fontFamily=Architects Daughter;fontSource=https%3A%2F%2Ffonts.googleapis.com%2Fcss%3Ffamily%3DArchitects%2BDaughter;" edge="1" parent="1" source="smViVWtoItukLS9vT0T5-7" target="smViVWtoItukLS9vT0T5-8">
          <mxGeometry relative="1" as="geometry">
            <Array as="points">
              <mxPoint x="179.91" y="555" />
              <mxPoint x="179.91" y="770" />
            </Array>
          </mxGeometry>
        </mxCell>
        <mxCell id="smViVWtoItukLS9vT0T5-7" value="Parallel Ranking&#xa;(OpenMP threads)" style="rounded=1;whiteSpace=wrap;html=1;fillColor=#d5e8d4;" vertex="1" parent="1">
          <mxGeometry x="239.91" y="525" width="160" height="60" as="geometry" />
        </mxCell>
        <mxCell id="smViVWtoItukLS9vT0T5-8" value="Search Results" style="rounded=1;whiteSpace=wrap;html=1;" vertex="1" parent="1">
          <mxGeometry x="519.91" y="740" width="160" height="60" as="geometry" />
        </mxCell>
        <mxCell id="smViVWtoItukLS9vT0T5-9" style="edgeStyle=orthogonalEdgeStyle;rounded=0;orthogonalLoop=1;jettySize=auto;html=1;endArrow=block;endFill=1;" edge="1" parent="1" source="smViVWtoItukLS9vT0T5-1" target="smViVWtoItukLS9vT0T5-2">
          <mxGeometry relative="1" as="geometry" />
        </mxCell>
        <mxCell id="smViVWtoItukLS9vT0T5-10" style="edgeStyle=orthogonalEdgeStyle;rounded=0;orthogonalLoop=1;jettySize=auto;html=1;endArrow=block;endFill=1;" edge="1" parent="1" source="smViVWtoItukLS9vT0T5-2" target="smViVWtoItukLS9vT0T5-3">
          <mxGeometry relative="1" as="geometry" />
        </mxCell>
        <mxCell id="smViVWtoItukLS9vT0T5-11" style="edgeStyle=orthogonalEdgeStyle;rounded=0;orthogonalLoop=1;jettySize=auto;html=1;endArrow=block;endFill=1;" edge="1" parent="1" source="smViVWtoItukLS9vT0T5-3" target="smViVWtoItukLS9vT0T5-4">
          <mxGeometry relative="1" as="geometry" />
        </mxCell>
        <mxCell id="smViVWtoItukLS9vT0T5-12" style="edgeStyle=orthogonalEdgeStyle;rounded=0;orthogonalLoop=1;jettySize=auto;html=1;endArrow=block;endFill=1;" edge="1" parent="1" source="smViVWtoItukLS9vT0T5-4" target="smViVWtoItukLS9vT0T5-5">
          <mxGeometry relative="1" as="geometry" />
        </mxCell>
        <mxCell id="smViVWtoItukLS9vT0T5-13" style="edgeStyle=orthogonalEdgeStyle;rounded=0;orthogonalLoop=1;jettySize=auto;html=1;endArrow=block;endFill=1;" edge="1" parent="1" source="smViVWtoItukLS9vT0T5-5" target="smViVWtoItukLS9vT0T5-6">
          <mxGeometry relative="1" as="geometry" />
        </mxCell>
        <mxCell id="smViVWtoItukLS9vT0T5-14" style="edgeStyle=orthogonalEdgeStyle;rounded=0;orthogonalLoop=1;jettySize=auto;html=1;endArrow=block;endFill=1;" edge="1" parent="1" source="smViVWtoItukLS9vT0T5-6" target="smViVWtoItukLS9vT0T5-7">
          <mxGeometry relative="1" as="geometry" />
        </mxCell>
        <mxCell id="smViVWtoItukLS9vT0T5-15" style="edgeStyle=orthogonalEdgeStyle;rounded=0;orthogonalLoop=1;jettySize=auto;html=1;endArrow=block;endFill=1;" edge="1" parent="1" source="smViVWtoItukLS9vT0T5-6" target="smViVWtoItukLS9vT0T5-8">
          <mxGeometry relative="1" as="geometry" />
        </mxCell>
        <mxCell id="smViVWtoItukLS9vT0T5-21" style="edgeStyle=orthogonalEdgeStyle;rounded=0;sketch=1;hachureGap=4;jiggle=2;curveFitting=1;orthogonalLoop=1;jettySize=auto;html=1;entryX=0;entryY=0.5;entryDx=0;entryDy=0;fontFamily=Architects Daughter;fontSource=https%3A%2F%2Ffonts.googleapis.com%2Fcss%3Ffamily%3DArchitects%2BDaughter;" edge="1" parent="1" source="smViVWtoItukLS9vT0T5-16" target="smViVWtoItukLS9vT0T5-3">
          <mxGeometry relative="1" as="geometry" />
        </mxCell>
        <mxCell id="smViVWtoItukLS9vT0T5-16" value="Parallel Crawler&#xa;(OpenMP threads)" style="rounded=1;whiteSpace=wrap;html=1;fillColor=#e1d5e7;" vertex="1" parent="1">
          <mxGeometry x="469.91" y="10" width="160" height="60" as="geometry" />
        </mxCell>
        <mxCell id="smViVWtoItukLS9vT0T5-22" style="edgeStyle=orthogonalEdgeStyle;rounded=0;sketch=1;hachureGap=4;jiggle=2;curveFitting=1;orthogonalLoop=1;jettySize=auto;html=1;entryX=0;entryY=0.5;entryDx=0;entryDy=0;fontFamily=Architects Daughter;fontSource=https%3A%2F%2Ffonts.googleapis.com%2Fcss%3Ffamily%3DArchitects%2BDaughter;" edge="1" parent="1" source="smViVWtoItukLS9vT0T5-17" target="smViVWtoItukLS9vT0T5-3">
          <mxGeometry relative="1" as="geometry" />
        </mxCell>
        <mxCell id="smViVWtoItukLS9vT0T5-17" value="Parallel Crawler&#xa;(OpenMP threads)" style="rounded=1;whiteSpace=wrap;html=1;fillColor=#e1d5e7;" vertex="1" parent="1">
          <mxGeometry x="469.91" y="210" width="160" height="60" as="geometry" />
        </mxCell>
        <mxCell id="smViVWtoItukLS9vT0T5-19" style="edgeStyle=orthogonalEdgeStyle;rounded=0;orthogonalLoop=1;jettySize=auto;html=1;endArrow=block;endFill=1;exitX=1;exitY=0.5;exitDx=0;exitDy=0;entryX=0;entryY=0.5;entryDx=0;entryDy=0;" edge="1" parent="1" source="smViVWtoItukLS9vT0T5-1" target="smViVWtoItukLS9vT0T5-17">
          <mxGeometry relative="1" as="geometry">
            <mxPoint x="419.91" y="130" as="sourcePoint" />
            <mxPoint x="509.91" y="130" as="targetPoint" />
          </mxGeometry>
        </mxCell>
        <mxCell id="smViVWtoItukLS9vT0T5-20" style="edgeStyle=orthogonalEdgeStyle;rounded=0;orthogonalLoop=1;jettySize=auto;html=1;endArrow=block;endFill=1;exitX=1;exitY=0.5;exitDx=0;exitDy=0;entryX=0;entryY=0.5;entryDx=0;entryDy=0;" edge="1" parent="1" source="smViVWtoItukLS9vT0T5-1" target="smViVWtoItukLS9vT0T5-16">
          <mxGeometry relative="1" as="geometry">
            <mxPoint x="419.91" y="180" as="sourcePoint" />
            <mxPoint x="509.91" y="290" as="targetPoint" />
          </mxGeometry>
        </mxCell>
        <mxCell id="smViVWtoItukLS9vT0T5-36" style="edgeStyle=orthogonalEdgeStyle;rounded=0;sketch=1;hachureGap=4;jiggle=2;curveFitting=1;orthogonalLoop=1;jettySize=auto;html=1;entryX=0.5;entryY=0;entryDx=0;entryDy=0;fontFamily=Architects Daughter;fontSource=https%3A%2F%2Ffonts.googleapis.com%2Fcss%3Ffamily%3DArchitects%2BDaughter;" edge="1" parent="1" source="smViVWtoItukLS9vT0T5-23" target="smViVWtoItukLS9vT0T5-5">
          <mxGeometry relative="1" as="geometry">
            <Array as="points">
              <mxPoint x="989.91" y="470" />
              <mxPoint x="799.91" y="470" />
            </Array>
          </mxGeometry>
        </mxCell>
        <mxCell id="smViVWtoItukLS9vT0T5-23" value="Parallel Indexing&#xa;(OpenMP threads)" style="rounded=1;whiteSpace=wrap;html=1;fillColor=#dae8fc;" vertex="1" parent="1">
          <mxGeometry x="909.91" y="370" width="160" height="60" as="geometry" />
        </mxCell>
        <mxCell id="smViVWtoItukLS9vT0T5-35" style="edgeStyle=orthogonalEdgeStyle;rounded=0;sketch=1;hachureGap=4;jiggle=2;curveFitting=1;orthogonalLoop=1;jettySize=auto;html=1;entryX=0.5;entryY=0;entryDx=0;entryDy=0;fontFamily=Architects Daughter;fontSource=https%3A%2F%2Ffonts.googleapis.com%2Fcss%3Ffamily%3DArchitects%2BDaughter;" edge="1" parent="1" source="smViVWtoItukLS9vT0T5-25" target="smViVWtoItukLS9vT0T5-5">
          <mxGeometry relative="1" as="geometry">
            <Array as="points">
              <mxPoint x="609.91" y="470" />
              <mxPoint x="799.91" y="470" />
            </Array>
          </mxGeometry>
        </mxCell>
        <mxCell id="smViVWtoItukLS9vT0T5-25" value="Parallel Indexing&#xa;(OpenMP threads)" style="rounded=1;whiteSpace=wrap;html=1;fillColor=#dae8fc;" vertex="1" parent="1">
          <mxGeometry x="529.91" y="370" width="160" height="60" as="geometry" />
        </mxCell>
        <mxCell id="smViVWtoItukLS9vT0T5-32" style="edgeStyle=orthogonalEdgeStyle;rounded=0;sketch=1;hachureGap=4;jiggle=2;curveFitting=1;orthogonalLoop=1;jettySize=auto;html=1;entryX=0;entryY=0.5;entryDx=0;entryDy=0;fontFamily=Architects Daughter;fontSource=https%3A%2F%2Ffonts.googleapis.com%2Fcss%3Ffamily%3DArchitects%2BDaughter;" edge="1" parent="1" source="smViVWtoItukLS9vT0T5-27" target="smViVWtoItukLS9vT0T5-8">
          <mxGeometry relative="1" as="geometry">
            <Array as="points">
              <mxPoint x="179.91" y="460" />
              <mxPoint x="179.91" y="770" />
            </Array>
          </mxGeometry>
        </mxCell>
        <mxCell id="smViVWtoItukLS9vT0T5-27" value="Parallel Ranking&#xa;(OpenMP threads)" style="rounded=1;whiteSpace=wrap;html=1;fillColor=#d5e8d4;" vertex="1" parent="1">
          <mxGeometry x="239.91" y="430" width="160" height="60" as="geometry" />
        </mxCell>
        <mxCell id="smViVWtoItukLS9vT0T5-34" style="edgeStyle=orthogonalEdgeStyle;rounded=0;sketch=1;hachureGap=4;jiggle=2;curveFitting=1;orthogonalLoop=1;jettySize=auto;html=1;entryX=0;entryY=0.5;entryDx=0;entryDy=0;fontFamily=Architects Daughter;fontSource=https%3A%2F%2Ffonts.googleapis.com%2Fcss%3Ffamily%3DArchitects%2BDaughter;" edge="1" parent="1" source="smViVWtoItukLS9vT0T5-28" target="smViVWtoItukLS9vT0T5-8">
          <mxGeometry relative="1" as="geometry">
            <Array as="points">
              <mxPoint x="179.91" y="640" />
              <mxPoint x="179.91" y="770" />
            </Array>
          </mxGeometry>
        </mxCell>
        <mxCell id="smViVWtoItukLS9vT0T5-28" value="Parallel Ranking&#xa;(OpenMP threads)" style="rounded=1;whiteSpace=wrap;html=1;fillColor=#d5e8d4;" vertex="1" parent="1">
          <mxGeometry x="239.91" y="610" width="160" height="60" as="geometry" />
        </mxCell>
        <mxCell id="smViVWtoItukLS9vT0T5-31" value="" style="edgeStyle=orthogonalEdgeStyle;rounded=0;orthogonalLoop=1;jettySize=auto;html=1;endArrow=block;endFill=1;" edge="1" parent="1" source="smViVWtoItukLS9vT0T5-7" target="smViVWtoItukLS9vT0T5-6">
          <mxGeometry relative="1" as="geometry">
            <mxPoint x="409.91" y="555" as="sourcePoint" />
            <mxPoint x="799.91" y="660" as="targetPoint" />
          </mxGeometry>
        </mxCell>
        <mxCell id="smViVWtoItukLS9vT0T5-6" value="User Query Input" style="rounded=1;whiteSpace=wrap;html=1;" vertex="1" parent="1">
          <mxGeometry x="519.91" y="525" width="160" height="60" as="geometry" />
        </mxCell>
        <mxCell id="smViVWtoItukLS9vT0T5-37" value="Openmp Version Flow" style="text;strokeColor=none;fillColor=none;align=left;verticalAlign=middle;spacingLeft=4;spacingRight=4;overflow=hidden;points=[[0,0.5],[1,0.5]];portConstraint=eastwest;rotatable=0;whiteSpace=wrap;html=1;fontFamily=Architects Daughter;fontSource=https%3A%2F%2Ffonts.googleapis.com%2Fcss%3Ffamily%3DArchitects%2BDaughter;fontSize=20;" vertex="1" parent="1">
          <mxGeometry x="50" y="25" width="180" height="55" as="geometry" />
        </mxCell>
      </root>
    </mxGraphModel>
  </diagram>
</mxfile>
